<mxfile host="Electron" modified="2024-05-08T05:33:32.462Z" agent="Mozilla/5.0 (Windows NT 10.0; Win64; x64) AppleWebKit/537.36 (KHTML, like Gecko) draw.io/24.1.0 Chrome/120.0.6099.109 Electron/28.1.0 Safari/537.36" etag="3gIR4--xUM0FzWpiVBLO" version="24.1.0" type="device">
  <diagram id="prtHgNgQTEPvFCAcTncT" name="Page-1">
    <mxGraphModel dx="1503" dy="1032" grid="1" gridSize="10" guides="1" tooltips="1" connect="1" arrows="1" fold="1" page="1" pageScale="1" pageWidth="827" pageHeight="1169" math="0" shadow="0">
      <root>
        <mxCell id="0" />
        <mxCell id="1" parent="0" />
        <mxCell id="o_uy-wKti-TR0-qMBJtI-1" value="家政保洁预约管理系统" style="rounded=0;whiteSpace=wrap;html=1;" vertex="1" parent="1">
          <mxGeometry x="595" width="140" height="60" as="geometry" />
        </mxCell>
        <mxCell id="o_uy-wKti-TR0-qMBJtI-2" value="员工" style="whiteSpace=wrap;html=1;rounded=0;" vertex="1" parent="1">
          <mxGeometry x="150" y="220" width="120" height="60" as="geometry" />
        </mxCell>
        <mxCell id="o_uy-wKti-TR0-qMBJtI-5" value="发布员工服务" style="rounded=0;whiteSpace=wrap;html=1;fontSize=19;" vertex="1" parent="1">
          <mxGeometry x="40" y="340" width="30" height="160" as="geometry" />
        </mxCell>
        <mxCell id="o_uy-wKti-TR0-qMBJtI-6" value="修改员工服务" style="rounded=0;whiteSpace=wrap;html=1;fontSize=19;" vertex="1" parent="1">
          <mxGeometry x="90" y="340" width="30" height="160" as="geometry" />
        </mxCell>
        <mxCell id="o_uy-wKti-TR0-qMBJtI-7" value="删除员工服务" style="rounded=0;whiteSpace=wrap;html=1;fontSize=19;" vertex="1" parent="1">
          <mxGeometry x="140" y="340" width="30" height="160" as="geometry" />
        </mxCell>
        <mxCell id="o_uy-wKti-TR0-qMBJtI-8" value="成为员工" style="rounded=0;whiteSpace=wrap;html=1;fontSize=19;align=center;" vertex="1" parent="1">
          <mxGeometry x="195" y="340" width="30" height="160" as="geometry" />
        </mxCell>
        <mxCell id="o_uy-wKti-TR0-qMBJtI-9" value="接受订单" style="rounded=0;whiteSpace=wrap;html=1;fontSize=19;" vertex="1" parent="1">
          <mxGeometry x="250" y="340" width="30" height="160" as="geometry" />
        </mxCell>
        <mxCell id="o_uy-wKti-TR0-qMBJtI-10" value="服务订单" style="rounded=0;whiteSpace=wrap;html=1;fontSize=19;" vertex="1" parent="1">
          <mxGeometry x="300" y="340" width="30" height="160" as="geometry" />
        </mxCell>
        <mxCell id="o_uy-wKti-TR0-qMBJtI-11" value="响应咨询" style="rounded=0;whiteSpace=wrap;html=1;fontSize=19;" vertex="1" parent="1">
          <mxGeometry x="350" y="340" width="30" height="160" as="geometry" />
        </mxCell>
        <mxCell id="o_uy-wKti-TR0-qMBJtI-12" value="" style="endArrow=none;html=1;rounded=0;exitX=0.5;exitY=0;exitDx=0;exitDy=0;entryX=0.5;entryY=1;entryDx=0;entryDy=0;edgeStyle=orthogonalEdgeStyle;" edge="1" parent="1" source="o_uy-wKti-TR0-qMBJtI-5" target="o_uy-wKti-TR0-qMBJtI-2">
          <mxGeometry width="50" height="50" relative="1" as="geometry">
            <mxPoint x="390" y="390" as="sourcePoint" />
            <mxPoint x="440" y="340" as="targetPoint" />
          </mxGeometry>
        </mxCell>
        <mxCell id="o_uy-wKti-TR0-qMBJtI-13" value="" style="endArrow=none;html=1;rounded=0;exitX=0.5;exitY=0;exitDx=0;exitDy=0;entryX=0.5;entryY=1;entryDx=0;entryDy=0;edgeStyle=orthogonalEdgeStyle;" edge="1" parent="1" source="o_uy-wKti-TR0-qMBJtI-6" target="o_uy-wKti-TR0-qMBJtI-2">
          <mxGeometry width="50" height="50" relative="1" as="geometry">
            <mxPoint x="195" y="350" as="sourcePoint" />
            <mxPoint x="350" y="280" as="targetPoint" />
          </mxGeometry>
        </mxCell>
        <mxCell id="o_uy-wKti-TR0-qMBJtI-14" value="" style="endArrow=none;html=1;rounded=0;exitX=0.5;exitY=0;exitDx=0;exitDy=0;entryX=0.5;entryY=1;entryDx=0;entryDy=0;edgeStyle=orthogonalEdgeStyle;" edge="1" parent="1" source="o_uy-wKti-TR0-qMBJtI-7" target="o_uy-wKti-TR0-qMBJtI-2">
          <mxGeometry width="50" height="50" relative="1" as="geometry">
            <mxPoint x="205" y="360" as="sourcePoint" />
            <mxPoint x="360" y="290" as="targetPoint" />
          </mxGeometry>
        </mxCell>
        <mxCell id="o_uy-wKti-TR0-qMBJtI-15" value="" style="endArrow=none;html=1;rounded=0;exitX=0.5;exitY=0;exitDx=0;exitDy=0;entryX=0.5;entryY=1;entryDx=0;entryDy=0;edgeStyle=orthogonalEdgeStyle;" edge="1" parent="1" source="o_uy-wKti-TR0-qMBJtI-8" target="o_uy-wKti-TR0-qMBJtI-2">
          <mxGeometry width="50" height="50" relative="1" as="geometry">
            <mxPoint x="215" y="370" as="sourcePoint" />
            <mxPoint x="370" y="300" as="targetPoint" />
          </mxGeometry>
        </mxCell>
        <mxCell id="o_uy-wKti-TR0-qMBJtI-16" value="" style="endArrow=none;html=1;rounded=0;exitX=0.5;exitY=0;exitDx=0;exitDy=0;entryX=0.5;entryY=1;entryDx=0;entryDy=0;edgeStyle=orthogonalEdgeStyle;" edge="1" parent="1" source="o_uy-wKti-TR0-qMBJtI-9" target="o_uy-wKti-TR0-qMBJtI-2">
          <mxGeometry width="50" height="50" relative="1" as="geometry">
            <mxPoint x="225" y="380" as="sourcePoint" />
            <mxPoint x="380" y="310" as="targetPoint" />
          </mxGeometry>
        </mxCell>
        <mxCell id="o_uy-wKti-TR0-qMBJtI-17" value="" style="endArrow=none;html=1;rounded=0;exitX=0.5;exitY=0;exitDx=0;exitDy=0;edgeStyle=orthogonalEdgeStyle;entryX=0.5;entryY=1;entryDx=0;entryDy=0;" edge="1" parent="1" source="o_uy-wKti-TR0-qMBJtI-10" target="o_uy-wKti-TR0-qMBJtI-2">
          <mxGeometry width="50" height="50" relative="1" as="geometry">
            <mxPoint x="235" y="390" as="sourcePoint" />
            <mxPoint x="340" y="270" as="targetPoint" />
          </mxGeometry>
        </mxCell>
        <mxCell id="o_uy-wKti-TR0-qMBJtI-18" value="" style="endArrow=none;html=1;rounded=0;exitX=0.5;exitY=1;exitDx=0;exitDy=0;entryX=0.5;entryY=0;entryDx=0;entryDy=0;edgeStyle=orthogonalEdgeStyle;" edge="1" parent="1" source="o_uy-wKti-TR0-qMBJtI-2" target="o_uy-wKti-TR0-qMBJtI-11">
          <mxGeometry width="50" height="50" relative="1" as="geometry">
            <mxPoint x="245" y="400" as="sourcePoint" />
            <mxPoint x="400" y="330" as="targetPoint" />
          </mxGeometry>
        </mxCell>
        <mxCell id="o_uy-wKti-TR0-qMBJtI-19" value="用户注册" style="rounded=0;whiteSpace=wrap;html=1;fontSize=19;" vertex="1" parent="1">
          <mxGeometry x="400" y="340" width="30" height="160" as="geometry" />
        </mxCell>
        <mxCell id="o_uy-wKti-TR0-qMBJtI-20" value="用户" style="whiteSpace=wrap;html=1;rounded=0;" vertex="1" parent="1">
          <mxGeometry x="605" y="110" width="120" height="60" as="geometry" />
        </mxCell>
        <mxCell id="o_uy-wKti-TR0-qMBJtI-21" value="" style="endArrow=none;html=1;rounded=0;exitX=0.5;exitY=0;exitDx=0;exitDy=0;entryX=0.5;entryY=1;entryDx=0;entryDy=0;edgeStyle=orthogonalEdgeStyle;" edge="1" parent="1" source="o_uy-wKti-TR0-qMBJtI-20" target="o_uy-wKti-TR0-qMBJtI-1">
          <mxGeometry width="50" height="50" relative="1" as="geometry">
            <mxPoint x="545" y="140" as="sourcePoint" />
            <mxPoint x="675" y="80" as="targetPoint" />
          </mxGeometry>
        </mxCell>
        <mxCell id="o_uy-wKti-TR0-qMBJtI-22" value="用户登录" style="rounded=0;whiteSpace=wrap;html=1;fontSize=19;" vertex="1" parent="1">
          <mxGeometry x="450" y="340" width="30" height="160" as="geometry" />
        </mxCell>
        <mxCell id="o_uy-wKti-TR0-qMBJtI-23" value="查看推荐服务" style="rounded=0;whiteSpace=wrap;html=1;fontSize=19;" vertex="1" parent="1">
          <mxGeometry x="500" y="340" width="30" height="160" as="geometry" />
        </mxCell>
        <mxCell id="o_uy-wKti-TR0-qMBJtI-24" value="查看服务类别" style="rounded=0;whiteSpace=wrap;html=1;fontSize=19;" vertex="1" parent="1">
          <mxGeometry x="550" y="340" width="30" height="160" as="geometry" />
        </mxCell>
        <mxCell id="o_uy-wKti-TR0-qMBJtI-25" value="查看细分服务" style="rounded=0;whiteSpace=wrap;html=1;fontSize=19;" vertex="1" parent="1">
          <mxGeometry x="600" y="340" width="30" height="160" as="geometry" />
        </mxCell>
        <mxCell id="o_uy-wKti-TR0-qMBJtI-26" value="查看服务详情" style="rounded=0;whiteSpace=wrap;html=1;fontSize=19;" vertex="1" parent="1">
          <mxGeometry x="650" y="340" width="30" height="160" as="geometry" />
        </mxCell>
        <mxCell id="o_uy-wKti-TR0-qMBJtI-27" value="新增地址" style="rounded=0;whiteSpace=wrap;html=1;fontSize=19;" vertex="1" parent="1">
          <mxGeometry x="700" y="340" width="30" height="160" as="geometry" />
        </mxCell>
        <mxCell id="o_uy-wKti-TR0-qMBJtI-28" value="删除地址" style="rounded=0;whiteSpace=wrap;html=1;fontSize=19;" vertex="1" parent="1">
          <mxGeometry x="750" y="340" width="30" height="160" as="geometry" />
        </mxCell>
        <mxCell id="o_uy-wKti-TR0-qMBJtI-29" value="修改地址" style="rounded=0;whiteSpace=wrap;html=1;fontSize=19;" vertex="1" parent="1">
          <mxGeometry x="797" y="340" width="30" height="160" as="geometry" />
        </mxCell>
        <mxCell id="o_uy-wKti-TR0-qMBJtI-30" value="查看地址" style="rounded=0;whiteSpace=wrap;html=1;fontSize=19;" vertex="1" parent="1">
          <mxGeometry x="850" y="340" width="30" height="160" as="geometry" />
        </mxCell>
        <mxCell id="o_uy-wKti-TR0-qMBJtI-31" value="设置默认地址" style="rounded=0;whiteSpace=wrap;html=1;fontSize=19;" vertex="1" parent="1">
          <mxGeometry x="900" y="340" width="30" height="160" as="geometry" />
        </mxCell>
        <mxCell id="o_uy-wKti-TR0-qMBJtI-33" value="创建订单" style="rounded=0;whiteSpace=wrap;html=1;fontSize=19;" vertex="1" parent="1">
          <mxGeometry x="950" y="340" width="30" height="160" as="geometry" />
        </mxCell>
        <mxCell id="o_uy-wKti-TR0-qMBJtI-34" value="支付订单" style="rounded=0;whiteSpace=wrap;html=1;fontSize=19;" vertex="1" parent="1">
          <mxGeometry x="1000" y="340" width="30" height="160" as="geometry" />
        </mxCell>
        <mxCell id="o_uy-wKti-TR0-qMBJtI-35" value="订单退款" style="rounded=0;whiteSpace=wrap;html=1;fontSize=19;" vertex="1" parent="1">
          <mxGeometry x="1050" y="340" width="30" height="160" as="geometry" />
        </mxCell>
        <mxCell id="o_uy-wKti-TR0-qMBJtI-36" value="订单评价" style="rounded=0;whiteSpace=wrap;html=1;fontSize=19;" vertex="1" parent="1">
          <mxGeometry x="1100" y="340" width="30" height="160" as="geometry" />
        </mxCell>
        <mxCell id="o_uy-wKti-TR0-qMBJtI-37" value="订单查看" style="rounded=0;whiteSpace=wrap;html=1;fontSize=19;" vertex="1" parent="1">
          <mxGeometry x="1150" y="340" width="30" height="160" as="geometry" />
        </mxCell>
        <mxCell id="o_uy-wKti-TR0-qMBJtI-38" value="个人信息修改" style="rounded=0;whiteSpace=wrap;html=1;fontSize=19;" vertex="1" parent="1">
          <mxGeometry x="1200" y="340" width="30" height="160" as="geometry" />
        </mxCell>
        <mxCell id="o_uy-wKti-TR0-qMBJtI-39" value="用户密码修改" style="rounded=0;whiteSpace=wrap;html=1;fontSize=19;" vertex="1" parent="1">
          <mxGeometry x="1250" y="340" width="30" height="160" as="geometry" />
        </mxCell>
        <mxCell id="o_uy-wKti-TR0-qMBJtI-40" value="员工咨询" style="rounded=0;whiteSpace=wrap;html=1;fontSize=19;" vertex="1" parent="1">
          <mxGeometry x="1300" y="340" width="30" height="160" as="geometry" />
        </mxCell>
        <mxCell id="o_uy-wKti-TR0-qMBJtI-46" value="" style="endArrow=none;html=1;rounded=0;exitX=0.5;exitY=1;exitDx=0;exitDy=0;entryX=0.5;entryY=0;entryDx=0;entryDy=0;edgeStyle=orthogonalEdgeStyle;" edge="1" parent="1" source="o_uy-wKti-TR0-qMBJtI-20" target="o_uy-wKti-TR0-qMBJtI-23">
          <mxGeometry width="50" height="50" relative="1" as="geometry">
            <mxPoint x="440" y="280" as="sourcePoint" />
            <mxPoint x="490" y="230" as="targetPoint" />
            <Array as="points">
              <mxPoint x="665" y="200" />
              <mxPoint x="515" y="200" />
            </Array>
          </mxGeometry>
        </mxCell>
        <mxCell id="o_uy-wKti-TR0-qMBJtI-47" value="" style="endArrow=none;html=1;rounded=0;exitX=0.5;exitY=1;exitDx=0;exitDy=0;entryX=0.5;entryY=0;entryDx=0;entryDy=0;edgeStyle=orthogonalEdgeStyle;" edge="1" parent="1" source="o_uy-wKti-TR0-qMBJtI-20" target="o_uy-wKti-TR0-qMBJtI-24">
          <mxGeometry width="50" height="50" relative="1" as="geometry">
            <mxPoint x="440" y="280" as="sourcePoint" />
            <mxPoint x="490" y="230" as="targetPoint" />
            <Array as="points">
              <mxPoint x="665" y="200" />
              <mxPoint x="565" y="200" />
            </Array>
          </mxGeometry>
        </mxCell>
        <mxCell id="o_uy-wKti-TR0-qMBJtI-48" value="" style="endArrow=none;html=1;rounded=0;exitX=0.5;exitY=1;exitDx=0;exitDy=0;entryX=0.5;entryY=0;entryDx=0;entryDy=0;edgeStyle=orthogonalEdgeStyle;" edge="1" parent="1" source="o_uy-wKti-TR0-qMBJtI-20" target="o_uy-wKti-TR0-qMBJtI-25">
          <mxGeometry width="50" height="50" relative="1" as="geometry">
            <mxPoint x="440" y="280" as="sourcePoint" />
            <mxPoint x="490" y="230" as="targetPoint" />
            <Array as="points">
              <mxPoint x="665" y="200" />
              <mxPoint x="615" y="200" />
            </Array>
          </mxGeometry>
        </mxCell>
        <mxCell id="o_uy-wKti-TR0-qMBJtI-49" value="" style="endArrow=none;html=1;rounded=0;exitX=0.5;exitY=1;exitDx=0;exitDy=0;entryX=0.5;entryY=0;entryDx=0;entryDy=0;" edge="1" parent="1" source="o_uy-wKti-TR0-qMBJtI-20" target="o_uy-wKti-TR0-qMBJtI-26">
          <mxGeometry width="50" height="50" relative="1" as="geometry">
            <mxPoint x="440" y="280" as="sourcePoint" />
            <mxPoint x="490" y="230" as="targetPoint" />
          </mxGeometry>
        </mxCell>
        <mxCell id="o_uy-wKti-TR0-qMBJtI-50" value="" style="endArrow=none;html=1;rounded=0;exitX=0.5;exitY=1;exitDx=0;exitDy=0;entryX=0.5;entryY=0;entryDx=0;entryDy=0;edgeStyle=orthogonalEdgeStyle;" edge="1" parent="1" source="o_uy-wKti-TR0-qMBJtI-20" target="o_uy-wKti-TR0-qMBJtI-27">
          <mxGeometry width="50" height="50" relative="1" as="geometry">
            <mxPoint x="570" y="290" as="sourcePoint" />
            <mxPoint x="620" y="240" as="targetPoint" />
            <Array as="points">
              <mxPoint x="665" y="200" />
              <mxPoint x="715" y="200" />
            </Array>
          </mxGeometry>
        </mxCell>
        <mxCell id="o_uy-wKti-TR0-qMBJtI-51" value="" style="endArrow=none;html=1;rounded=0;exitX=0.5;exitY=1;exitDx=0;exitDy=0;entryX=0.5;entryY=0;entryDx=0;entryDy=0;edgeStyle=orthogonalEdgeStyle;" edge="1" parent="1" source="o_uy-wKti-TR0-qMBJtI-20" target="o_uy-wKti-TR0-qMBJtI-28">
          <mxGeometry width="50" height="50" relative="1" as="geometry">
            <mxPoint x="570" y="290" as="sourcePoint" />
            <mxPoint x="620" y="240" as="targetPoint" />
            <Array as="points">
              <mxPoint x="665" y="200" />
              <mxPoint x="765" y="200" />
            </Array>
          </mxGeometry>
        </mxCell>
        <mxCell id="o_uy-wKti-TR0-qMBJtI-52" value="" style="endArrow=none;html=1;rounded=0;exitX=0.5;exitY=1;exitDx=0;exitDy=0;entryX=0.5;entryY=0;entryDx=0;entryDy=0;edgeStyle=orthogonalEdgeStyle;" edge="1" parent="1" source="o_uy-wKti-TR0-qMBJtI-20" target="o_uy-wKti-TR0-qMBJtI-29">
          <mxGeometry width="50" height="50" relative="1" as="geometry">
            <mxPoint x="570" y="290" as="sourcePoint" />
            <mxPoint x="620" y="240" as="targetPoint" />
            <Array as="points">
              <mxPoint x="665" y="200" />
              <mxPoint x="812" y="200" />
            </Array>
          </mxGeometry>
        </mxCell>
        <mxCell id="o_uy-wKti-TR0-qMBJtI-53" value="" style="endArrow=none;html=1;rounded=0;exitX=0.5;exitY=1;exitDx=0;exitDy=0;entryX=0.5;entryY=0;entryDx=0;entryDy=0;edgeStyle=orthogonalEdgeStyle;" edge="1" parent="1" source="o_uy-wKti-TR0-qMBJtI-20" target="o_uy-wKti-TR0-qMBJtI-30">
          <mxGeometry width="50" height="50" relative="1" as="geometry">
            <mxPoint x="570" y="290" as="sourcePoint" />
            <mxPoint x="620" y="240" as="targetPoint" />
            <Array as="points">
              <mxPoint x="665" y="200" />
              <mxPoint x="865" y="200" />
            </Array>
          </mxGeometry>
        </mxCell>
        <mxCell id="o_uy-wKti-TR0-qMBJtI-54" value="" style="endArrow=none;html=1;rounded=0;exitX=0.5;exitY=1;exitDx=0;exitDy=0;entryX=0.5;entryY=0;entryDx=0;entryDy=0;edgeStyle=orthogonalEdgeStyle;" edge="1" parent="1" source="o_uy-wKti-TR0-qMBJtI-20" target="o_uy-wKti-TR0-qMBJtI-31">
          <mxGeometry width="50" height="50" relative="1" as="geometry">
            <mxPoint x="570" y="290" as="sourcePoint" />
            <mxPoint x="620" y="240" as="targetPoint" />
            <Array as="points">
              <mxPoint x="665" y="200" />
              <mxPoint x="915" y="200" />
            </Array>
          </mxGeometry>
        </mxCell>
        <mxCell id="o_uy-wKti-TR0-qMBJtI-55" value="" style="endArrow=none;html=1;rounded=0;exitX=0.5;exitY=1;exitDx=0;exitDy=0;entryX=0.5;entryY=0;entryDx=0;entryDy=0;edgeStyle=orthogonalEdgeStyle;" edge="1" parent="1" source="o_uy-wKti-TR0-qMBJtI-20" target="o_uy-wKti-TR0-qMBJtI-33">
          <mxGeometry width="50" height="50" relative="1" as="geometry">
            <mxPoint x="690" y="280" as="sourcePoint" />
            <mxPoint x="740" y="230" as="targetPoint" />
            <Array as="points">
              <mxPoint x="665" y="200" />
              <mxPoint x="965" y="200" />
            </Array>
          </mxGeometry>
        </mxCell>
        <mxCell id="o_uy-wKti-TR0-qMBJtI-56" value="" style="endArrow=none;html=1;rounded=0;exitX=0.5;exitY=1;exitDx=0;exitDy=0;entryX=0.5;entryY=0;entryDx=0;entryDy=0;edgeStyle=orthogonalEdgeStyle;" edge="1" parent="1" source="o_uy-wKti-TR0-qMBJtI-20" target="o_uy-wKti-TR0-qMBJtI-34">
          <mxGeometry width="50" height="50" relative="1" as="geometry">
            <mxPoint x="640" y="280" as="sourcePoint" />
            <mxPoint x="690" y="230" as="targetPoint" />
            <Array as="points">
              <mxPoint x="665" y="200" />
              <mxPoint x="1015" y="200" />
            </Array>
          </mxGeometry>
        </mxCell>
        <mxCell id="o_uy-wKti-TR0-qMBJtI-57" value="" style="endArrow=none;html=1;rounded=0;entryX=0.5;entryY=0;entryDx=0;entryDy=0;exitX=0.5;exitY=1;exitDx=0;exitDy=0;edgeStyle=orthogonalEdgeStyle;" edge="1" parent="1" source="o_uy-wKti-TR0-qMBJtI-20" target="o_uy-wKti-TR0-qMBJtI-35">
          <mxGeometry width="50" height="50" relative="1" as="geometry">
            <mxPoint x="780" y="280" as="sourcePoint" />
            <mxPoint x="830" y="230" as="targetPoint" />
            <Array as="points">
              <mxPoint x="665" y="200" />
              <mxPoint x="1065" y="200" />
            </Array>
          </mxGeometry>
        </mxCell>
        <mxCell id="o_uy-wKti-TR0-qMBJtI-58" value="" style="endArrow=none;html=1;rounded=0;entryX=0.5;entryY=0;entryDx=0;entryDy=0;exitX=0.5;exitY=1;exitDx=0;exitDy=0;edgeStyle=orthogonalEdgeStyle;" edge="1" parent="1" source="o_uy-wKti-TR0-qMBJtI-20" target="o_uy-wKti-TR0-qMBJtI-36">
          <mxGeometry width="50" height="50" relative="1" as="geometry">
            <mxPoint x="760" y="280" as="sourcePoint" />
            <mxPoint x="810" y="230" as="targetPoint" />
            <Array as="points">
              <mxPoint x="665" y="200" />
              <mxPoint x="1115" y="200" />
            </Array>
          </mxGeometry>
        </mxCell>
        <mxCell id="o_uy-wKti-TR0-qMBJtI-59" value="" style="endArrow=none;html=1;rounded=0;exitX=0.5;exitY=1;exitDx=0;exitDy=0;entryX=0.5;entryY=0;entryDx=0;entryDy=0;edgeStyle=orthogonalEdgeStyle;" edge="1" parent="1" source="o_uy-wKti-TR0-qMBJtI-20" target="o_uy-wKti-TR0-qMBJtI-37">
          <mxGeometry width="50" height="50" relative="1" as="geometry">
            <mxPoint x="730" y="290" as="sourcePoint" />
            <mxPoint x="780" y="240" as="targetPoint" />
            <Array as="points">
              <mxPoint x="665" y="200" />
              <mxPoint x="1165" y="200" />
            </Array>
          </mxGeometry>
        </mxCell>
        <mxCell id="o_uy-wKti-TR0-qMBJtI-60" value="" style="endArrow=none;html=1;rounded=0;exitX=0.5;exitY=1;exitDx=0;exitDy=0;entryX=0.5;entryY=0;entryDx=0;entryDy=0;edgeStyle=orthogonalEdgeStyle;" edge="1" parent="1" source="o_uy-wKti-TR0-qMBJtI-20" target="o_uy-wKti-TR0-qMBJtI-38">
          <mxGeometry width="50" height="50" relative="1" as="geometry">
            <mxPoint x="730" y="290" as="sourcePoint" />
            <mxPoint x="780" y="240" as="targetPoint" />
            <Array as="points">
              <mxPoint x="665" y="200" />
              <mxPoint x="1215" y="200" />
            </Array>
          </mxGeometry>
        </mxCell>
        <mxCell id="o_uy-wKti-TR0-qMBJtI-61" value="" style="endArrow=none;html=1;rounded=0;exitX=0.5;exitY=1;exitDx=0;exitDy=0;entryX=0.5;entryY=0;entryDx=0;entryDy=0;edgeStyle=orthogonalEdgeStyle;" edge="1" parent="1" source="o_uy-wKti-TR0-qMBJtI-20" target="o_uy-wKti-TR0-qMBJtI-39">
          <mxGeometry width="50" height="50" relative="1" as="geometry">
            <mxPoint x="730" y="290" as="sourcePoint" />
            <mxPoint x="780" y="240" as="targetPoint" />
            <Array as="points">
              <mxPoint x="665" y="200" />
              <mxPoint x="1265" y="200" />
            </Array>
          </mxGeometry>
        </mxCell>
        <mxCell id="o_uy-wKti-TR0-qMBJtI-62" value="" style="endArrow=none;html=1;rounded=0;entryX=0.5;entryY=0;entryDx=0;entryDy=0;exitX=0.5;exitY=1;exitDx=0;exitDy=0;edgeStyle=orthogonalEdgeStyle;" edge="1" parent="1" source="o_uy-wKti-TR0-qMBJtI-20" target="o_uy-wKti-TR0-qMBJtI-40">
          <mxGeometry width="50" height="50" relative="1" as="geometry">
            <mxPoint x="970" y="290" as="sourcePoint" />
            <mxPoint x="1020" y="240" as="targetPoint" />
            <Array as="points">
              <mxPoint x="665" y="200" />
              <mxPoint x="1315" y="200" />
            </Array>
          </mxGeometry>
        </mxCell>
        <mxCell id="o_uy-wKti-TR0-qMBJtI-64" value="" style="endArrow=none;html=1;rounded=0;exitX=0.5;exitY=0;exitDx=0;exitDy=0;entryX=0.5;entryY=1;entryDx=0;entryDy=0;edgeStyle=orthogonalEdgeStyle;" edge="1" parent="1" source="o_uy-wKti-TR0-qMBJtI-22" target="o_uy-wKti-TR0-qMBJtI-20">
          <mxGeometry width="50" height="50" relative="1" as="geometry">
            <mxPoint x="620" y="350" as="sourcePoint" />
            <mxPoint x="670" y="300" as="targetPoint" />
            <Array as="points">
              <mxPoint x="465" y="200" />
              <mxPoint x="665" y="200" />
            </Array>
          </mxGeometry>
        </mxCell>
        <mxCell id="o_uy-wKti-TR0-qMBJtI-65" value="" style="endArrow=none;html=1;rounded=0;exitX=0.5;exitY=0;exitDx=0;exitDy=0;entryX=0.5;entryY=1;entryDx=0;entryDy=0;edgeStyle=orthogonalEdgeStyle;" edge="1" parent="1" source="o_uy-wKti-TR0-qMBJtI-19" target="o_uy-wKti-TR0-qMBJtI-20">
          <mxGeometry width="50" height="50" relative="1" as="geometry">
            <mxPoint x="580" y="400" as="sourcePoint" />
            <mxPoint x="630" y="350" as="targetPoint" />
            <Array as="points">
              <mxPoint x="415" y="200" />
              <mxPoint x="665" y="200" />
            </Array>
          </mxGeometry>
        </mxCell>
        <mxCell id="o_uy-wKti-TR0-qMBJtI-66" value="" style="endArrow=none;html=1;rounded=0;exitX=0.5;exitY=0;exitDx=0;exitDy=0;entryX=0.5;entryY=1;entryDx=0;entryDy=0;edgeStyle=orthogonalEdgeStyle;" edge="1" parent="1" source="o_uy-wKti-TR0-qMBJtI-2" target="o_uy-wKti-TR0-qMBJtI-20">
          <mxGeometry width="50" height="50" relative="1" as="geometry">
            <mxPoint x="580" y="400" as="sourcePoint" />
            <mxPoint x="630" y="350" as="targetPoint" />
            <Array as="points">
              <mxPoint x="210" y="200" />
              <mxPoint x="665" y="200" />
            </Array>
          </mxGeometry>
        </mxCell>
      </root>
    </mxGraphModel>
  </diagram>
</mxfile>
